<svg id="SvgjsSvg1033" width="288" height="288" xmlns="http://www.w3.org/2000/svg" version="1.1" xmlns:xlink="http://www.w3.org/1999/xlink" xmlns:svgjs="http://svgjs.com/svgjs"><defs id="SvgjsDefs1034"></defs><g id="SvgjsG1035"><svg xmlns="http://www.w3.org/2000/svg" width="288" height="288" version="1.0" viewBox="0 0 980 980"><g transform="matrix(.1 0 0 -.1 0 980)" fill="#ffffff" class="color000 svgShape"><path d="M4640 9793 c-381 -26 -614 -62 -940 -143 -590 -147 -1173 -420 -1675-785 -406 -296 -815 -706 -1103 -1108 -1234 -1721 -1228 -4025 13 -5732 153
-209 301 -382 505 -585 420 -420 838 -715 1375 -972 609 -292 1317 -457 1970
-462 197 -1 201 -1 256 25 76 36 129 86 170 161 32 59 34 69 34 158 0 84 -3
102 -28 152 -35 72 -119 150 -190 176 -41 16 -98 22 -283 31 -428 20 -751 77
-1124 197 -1003 321 -1855 1016 -2379 1941 -430 760 -613 1686 -506 2560 198
1613 1321 2977 2865 3482 881 288 1847 275 2710 -36 785 -283 1456 -780 1957
-1451 940 -1257 1094 -2955 395 -4357 -101 -202 -147 -283 -268 -465 -284
-428 -616 -774 -1032 -1077 -152 -110 -193 -153 -223 -232 -64 -171 12 -361
178 -443 57 -28 76 -32 147 -32 108 -1 166 27 360 173 207 156 305 241 495
426 412 404 713 816 967 1325 812 1628 649 3583 -421 5055 -284 390 -665 775
-1050 1060 -857 636 -1885 972 -2940 963 -104 -1 -210 -3 -235 -5z" fill="#ffffff" class="color000 svgShape"></path><path d="M3853 6611c-99-34-171-100-216-198-34-75-31-198 7-281 37-79 114-152 191-181 56-21 59-21 1915-21 1856 0 1859 0 1915 21 77 29 154 102 191 181 25 54 29 75 29 148-1 70-5 94-27 140-38 81-89 134-166 172l-67 33-1860 2c-1769 2-1863 2-1912-16zM2153 5206c-91-29-166-98-212-195-22-47-26-70-26-141 0-76 4-93 33-152 38-77 92-130 171-167l56-26 2725 0 2725 0 56 26c79 37 133 90 171 167 29 59 33 76 33 152 0 71-4 94-27 142-35 76-98 142-167 175l-56 28-2720 2c-2218 1-2728-1-2762-11zM5176 3845c-73-30-147-100-184-175-24-48-27-67-27-150 0-89 2-99 34-158 41-75 94-125 170-161l56-26 1200 0 1200 0 67 33c77 38 128 91 166 172 22 46 26 70 27 140 0 73-4 94-29 148-37 79-114 152-191 181-55 21-66 21-1243 21l-1187 0-59-25z" fill="#ffffff" class="color000 svgShape"></path></g></svg></g></svg>